<svg width="240" height="240" viewBox="0 0 240 240" fill="none" xmlns="http://www.w3.org/2000/svg">
<path d="M112.5 45.33C96.831 35.2937 78.6076 29.9724 60 30C48.9299 29.9887 37.939 31.8656 27.5 35.55C26.0379 36.0669 24.772 37.0243 23.8766 38.2905C22.9812 39.5566 22.5002 41.0692 22.5 42.62V185.12C22.5002 186.32 22.7882 187.502 23.3398 188.567C23.8915 189.633 24.6907 190.55 25.6703 191.243C26.65 191.936 27.7815 192.383 28.9699 192.548C30.1583 192.713 31.3689 192.59 32.5 192.19C41.3333 189.074 50.6333 187.488 60 187.5C79.95 187.5 98.23 194.57 112.5 206.36V45.33ZM127.5 206.36C142.264 194.141 160.836 187.47 180 187.5C189.66 187.5 198.9 189.16 207.5 192.2C208.632 192.6 209.843 192.723 211.033 192.557C212.222 192.392 213.354 191.944 214.334 191.25C215.314 190.556 216.113 189.637 216.664 188.571C217.215 187.504 217.501 186.321 217.5 185.12V42.62C217.5 41.0692 217.019 39.5566 216.123 38.2905C215.228 37.0243 213.962 36.0669 212.5 35.55C202.061 31.8656 191.07 29.9887 180 30C161.392 29.9724 143.169 35.2937 127.5 45.33V206.36Z" fill="#DD845A"/>
</svg>
