<svg width="1400" height="300" viewBox="0 0 1400 300" fill="none" xmlns="http://www.w3.org/2000/svg">
<path d="M117.5 75.33C101.831 65.2937 83.6076 59.9724 65 60C53.9299 59.9887 42.939 61.8656 32.5 65.55C31.0379 66.0669 29.772 67.0243 28.8766 68.2905C27.9812 69.5566 27.5002 71.0692 27.5 72.62V215.12C27.5002 216.32 27.7882 217.502 28.3398 218.567C28.8915 219.633 29.6907 220.55 30.6703 221.243C31.65 221.936 32.7815 222.383 33.9699 222.548C35.1583 222.713 36.3689 222.59 37.5 222.19C46.3333 219.074 55.6333 217.488 65 217.5C84.95 217.5 103.23 224.57 117.5 236.36V75.33ZM132.5 236.36C147.264 224.141 165.836 217.47 185 217.5C194.66 217.5 203.9 219.16 212.5 222.2C213.632 222.6 214.843 222.723 216.033 222.557C217.222 222.392 218.354 221.944 219.334 221.25C220.314 220.556 221.113 219.637 221.664 218.571C222.215 217.504 222.501 216.321 222.5 215.12V72.62C222.5 71.0692 222.019 69.5566 221.123 68.2905C220.228 67.0243 218.962 66.0669 217.5 65.55C207.061 61.8656 196.07 59.9887 185 60C166.392 59.9724 148.169 65.2937 132.5 75.33V236.36Z" fill="#DD845A"/>
<path d="M288.872 74.44L406.264 186.312L408.472 208.576L291.08 96.888L288.872 74.44ZM289.792 192.936V206H274.52V204.16C274.52 204.16 275.072 204.16 276.176 204.16C277.28 204.16 277.893 204.16 278.016 204.16C281.083 204.16 283.72 203.056 285.928 200.848C288.136 198.64 289.24 196.003 289.24 192.936H289.792ZM315.552 192.936C315.552 196.003 316.656 198.64 318.864 200.848C321.072 203.056 323.709 204.16 326.776 204.16C326.899 204.16 327.512 204.16 328.616 204.16C329.72 204.16 330.272 204.16 330.272 204.16V206H315V192.936H315.552ZM288.872 74.44L315.368 102.592L315.552 206H289.24V97.44C289.24 90.5707 288.872 85.0507 288.136 80.88C287.4 76.5867 287.032 74.44 287.032 74.44H288.872ZM407.92 77.2V185.024C407.92 189.563 408.104 193.672 408.472 197.352C408.84 200.909 409.208 203.669 409.576 205.632C409.944 207.595 410.128 208.576 410.128 208.576H408.472L381.792 178.768V77.2H407.92ZM422.64 77.2V79.04C422.64 79.04 422.088 79.04 420.984 79.04C419.88 79.04 419.328 79.04 419.328 79.04C416.261 79.04 413.624 80.144 411.416 82.352C409.208 84.4373 408.043 87.0747 407.92 90.264H407.368V77.2H422.64ZM366.888 77.2H382.16V90.264H381.792C381.669 87.0747 380.504 84.4373 378.296 82.352C376.211 80.144 373.573 79.04 370.384 79.04C370.384 79.04 369.832 79.04 368.728 79.04C367.624 79.04 367.011 79.04 366.888 79.04V77.2ZM496.001 93.208C505.815 93.208 514.708 94.5573 522.681 97.256C530.655 99.832 537.524 103.635 543.289 108.664C549.055 113.693 553.471 119.765 556.537 126.88C559.727 133.995 561.321 142.029 561.321 150.984C561.321 159.816 559.727 167.789 556.537 174.904C553.471 181.896 549.055 187.907 543.289 192.936C537.524 197.965 530.655 201.829 522.681 204.528C514.708 207.104 505.815 208.392 496.001 208.392C486.311 208.392 477.479 207.104 469.505 204.528C461.532 201.829 454.663 197.965 448.897 192.936C443.132 187.907 438.716 181.896 435.649 174.904C432.583 167.789 431.049 159.816 431.049 150.984C431.049 142.029 432.583 133.995 435.649 126.88C438.716 119.765 443.132 113.693 448.897 108.664C454.663 103.635 461.532 99.832 469.505 97.256C477.479 94.5573 486.311 93.208 496.001 93.208ZM496.001 201.216C503.484 201.216 509.985 199.192 515.505 195.144C521.148 190.973 525.441 185.147 528.385 177.664C531.452 170.181 532.985 161.288 532.985 150.984C532.985 140.557 531.452 131.603 528.385 124.12C525.441 116.515 521.148 110.688 515.505 106.64C509.985 102.469 503.484 100.384 496.001 100.384C488.641 100.384 482.201 102.469 476.681 106.64C471.161 110.688 466.868 116.515 463.801 124.12C460.735 131.603 459.201 140.557 459.201 150.984C459.201 161.288 460.735 170.181 463.801 177.664C466.868 185.147 471.161 190.973 476.681 195.144C482.201 199.192 488.641 201.216 496.001 201.216ZM622.756 208.392L568.66 96.52H599.94L633.428 174.536L622.756 208.392ZM622.756 208.392L622.02 186.864L661.948 96.152H675.38L632.876 185.944C632.63 186.557 632.078 187.845 631.22 189.808C630.361 191.648 629.441 193.795 628.46 196.248C627.478 198.579 626.558 200.848 625.7 203.056C624.964 205.264 624.534 207.043 624.412 208.392H622.756ZM656.796 107.744C658.145 104.432 657.961 101.856 656.244 100.016C654.649 98.176 652.748 97.256 650.54 97.256H649.252V95.6H685.868V97.44C685.868 97.44 685.622 97.44 685.132 97.44C684.641 97.44 684.396 97.44 684.396 97.44C681.942 97.44 679.366 98.2373 676.668 99.832C673.969 101.304 671.7 103.941 669.86 107.744H656.796ZM604.724 107.744H574.18C572.34 103.941 570.07 101.304 567.372 99.832C564.796 98.2373 562.281 97.44 559.828 97.44C559.828 97.44 559.644 97.44 559.276 97.44C558.785 97.44 558.54 97.44 558.54 97.44V95.6H612.452V97.256H610.98C609.017 97.256 607.177 98.176 605.46 100.016C603.742 101.856 603.497 104.432 604.724 107.744ZM726.822 95.6V206H700.326V95.6H726.822ZM769.878 198.64L774.11 206H726.454V198.64H769.878ZM763.622 147.672V155.032H726.454V147.672H763.622ZM771.902 95.6V102.96H726.454V95.6H771.902ZM781.654 172.144L774.662 206H742.83L748.534 198.64C753.809 198.64 758.47 197.597 762.518 195.512C766.689 193.304 770.246 190.237 773.19 186.312C776.134 182.264 778.404 177.541 779.998 172.144H781.654ZM763.622 154.664V170.856H761.782V169.384C761.782 165.336 760.494 161.963 757.918 159.264C755.465 156.565 752.092 155.155 747.798 155.032V154.664H763.622ZM763.622 131.848V148.04H747.798V147.672C752.092 147.549 755.465 146.139 757.918 143.44C760.494 140.619 761.782 137.184 761.782 133.136V131.848H763.622ZM771.902 102.592V122.096H770.062V120.44C770.062 115.043 768.59 110.811 765.646 107.744C762.825 104.677 758.716 103.083 753.318 102.96V102.592H771.902ZM771.902 92.84V97.256L752.582 95.6C756.14 95.6 759.881 95.2933 763.806 94.68C767.732 93.944 770.43 93.3307 771.902 92.84ZM700.694 194.408L701.614 206H687.998V204.16C687.998 204.16 688.366 204.16 689.102 204.16C689.838 204.16 690.268 204.16 690.39 204.16C693.089 204.16 695.358 203.24 697.198 201.4C699.161 199.437 700.204 197.107 700.326 194.408H700.694ZM700.694 107.192H700.326C700.204 104.371 699.161 102.04 697.198 100.2C695.358 98.36 693.089 97.44 690.39 97.44C690.268 97.44 689.838 97.44 689.102 97.44C688.366 97.44 687.998 97.44 687.998 97.44V95.6H701.614L700.694 107.192ZM829.963 95.6V206H803.467V95.6H829.963ZM872.835 198.64L877.251 206H829.595V198.64H872.835ZM884.979 172.144L877.803 206H845.971L851.675 198.64C856.949 198.64 861.611 197.597 865.659 195.512C869.829 193.304 873.387 190.237 876.331 186.312C879.275 182.264 881.544 177.541 883.139 172.144H884.979ZM803.835 194.408L804.755 206H791.139V204.16C791.139 204.16 791.507 204.16 792.243 204.16C792.979 204.16 793.408 204.16 793.531 204.16C796.229 204.16 798.499 203.24 800.339 201.4C802.301 199.437 803.344 197.107 803.467 194.408H803.835ZM829.595 107.192V95.6H842.291V97.44C842.168 97.44 841.739 97.44 841.003 97.44C840.389 97.44 840.083 97.44 840.083 97.44C837.384 97.44 835.053 98.36 833.091 100.2C831.128 102.04 830.085 104.371 829.963 107.192H829.595ZM803.835 107.192H803.467C803.344 104.371 802.301 102.04 800.339 100.2C798.376 98.36 796.045 97.44 793.347 97.44C793.224 97.44 792.795 97.44 792.059 97.44C791.445 97.44 791.139 97.44 791.139 97.44V95.6H803.835V107.192ZM935.363 77.2V206H907.763V77.2H935.363ZM977.131 138.656V146.384H934.811V138.656H977.131ZM986.147 77.2V85.112H934.811V77.2H986.147ZM977.131 146.016V163.68H975.291V162.208C975.291 157.669 973.819 153.928 970.875 150.984C967.931 148.04 964.19 146.507 959.651 146.384V146.016H977.131ZM977.131 121.36V139.024H959.651V138.656C964.19 138.533 967.931 137 970.875 134.056C973.819 130.989 975.291 127.187 975.291 122.648V121.36H977.131ZM986.147 84.56V104.984H984.307V103.144C984.307 97.624 982.651 93.2693 979.339 90.08C976.15 86.768 971.795 85.112 966.275 85.112V84.56H986.147ZM986.147 73.888V79.224L963.699 77.2C966.398 77.2 969.219 77.016 972.163 76.648C975.23 76.28 978.051 75.8507 980.627 75.36C983.203 74.8693 985.043 74.3787 986.147 73.888ZM908.315 192.568V206H893.595V204.16C893.595 204.16 893.963 204.16 894.699 204.16C895.558 204.16 895.987 204.16 895.987 204.16C899.177 204.16 901.875 203.056 904.083 200.848C906.414 198.517 907.641 195.757 907.763 192.568H908.315ZM908.315 90.632H907.763C907.641 87.4427 906.414 84.744 904.083 82.536C901.875 80.2053 899.177 79.04 895.987 79.04C895.987 79.04 895.558 79.04 894.699 79.04C893.963 79.04 893.595 79.04 893.595 79.04V77.2H908.315V90.632ZM934.811 192.568H935.363C935.486 195.757 936.651 198.517 938.859 200.848C941.19 203.056 943.95 204.16 947.139 204.16C947.139 204.16 947.507 204.16 948.243 204.16C948.979 204.16 949.409 204.16 949.531 204.16V206H934.811V192.568ZM1037.68 95.6V206H1011.19V95.6H1037.68ZM1080.55 198.64L1084.97 206H1037.31V198.64H1080.55ZM1092.7 172.144L1085.52 206H1053.69L1059.39 198.64C1064.67 198.64 1069.33 197.597 1073.38 195.512C1077.55 193.304 1081.11 190.237 1084.05 186.312C1086.99 182.264 1089.26 177.541 1090.86 172.144H1092.7ZM1011.55 194.408L1012.47 206H998.858V204.16C998.858 204.16 999.226 204.16 999.962 204.16C1000.7 204.16 1001.13 204.16 1001.25 204.16C1003.95 204.16 1006.22 203.24 1008.06 201.4C1010.02 199.437 1011.06 197.107 1011.19 194.408H1011.55ZM1037.31 107.192V95.6H1050.01V97.44C1049.89 97.44 1049.46 97.44 1048.72 97.44C1048.11 97.44 1047.8 97.44 1047.8 97.44C1045.1 97.44 1042.77 98.36 1040.81 100.2C1038.85 102.04 1037.8 104.371 1037.68 107.192H1037.31ZM1011.55 107.192H1011.19C1011.06 104.371 1010.02 102.04 1008.06 100.2C1006.09 98.36 1003.76 97.44 1001.07 97.44C1000.94 97.44 1000.51 97.44 999.778 97.44C999.164 97.44 998.858 97.44 998.858 97.44V95.6H1011.55V107.192ZM1166.95 93.208C1176.77 93.208 1185.66 94.5573 1193.63 97.256C1201.61 99.832 1208.48 103.635 1214.24 108.664C1220.01 113.693 1224.42 119.765 1227.49 126.88C1230.68 133.995 1232.27 142.029 1232.27 150.984C1232.27 159.816 1230.68 167.789 1227.49 174.904C1224.42 181.896 1220.01 187.907 1214.24 192.936C1208.48 197.965 1201.61 201.829 1193.63 204.528C1185.66 207.104 1176.77 208.392 1166.95 208.392C1157.26 208.392 1148.43 207.104 1140.46 204.528C1132.49 201.829 1125.62 197.965 1119.85 192.936C1114.09 187.907 1109.67 181.896 1106.6 174.904C1103.54 167.789 1102 159.816 1102 150.984C1102 142.029 1103.54 133.995 1106.6 126.88C1109.67 119.765 1114.09 113.693 1119.85 108.664C1125.62 103.635 1132.49 99.832 1140.46 97.256C1148.43 94.5573 1157.26 93.208 1166.95 93.208ZM1166.95 201.216C1174.44 201.216 1180.94 199.192 1186.46 195.144C1192.1 190.973 1196.39 185.147 1199.34 177.664C1202.41 170.181 1203.94 161.288 1203.94 150.984C1203.94 140.557 1202.41 131.603 1199.34 124.12C1196.39 116.515 1192.1 110.688 1186.46 106.64C1180.94 102.469 1174.44 100.384 1166.95 100.384C1159.59 100.384 1153.15 102.469 1147.63 106.64C1142.11 110.688 1137.82 116.515 1134.75 124.12C1131.69 131.603 1130.15 140.557 1130.15 150.984C1130.15 161.288 1131.69 170.181 1134.75 177.664C1137.82 185.147 1142.11 190.973 1147.63 195.144C1153.15 199.192 1159.59 201.216 1166.95 201.216ZM1242.18 96.704H1270.7L1295.54 162.208L1285.24 208.024L1242.18 96.704ZM1324.43 93.024L1327.74 109.952L1291.12 189.44C1291.12 189.44 1290.76 190.36 1290.02 192.2C1289.41 194.04 1288.73 196.371 1288 199.192C1287.26 202.013 1286.89 204.957 1286.89 208.024H1285.24L1280.27 187.6L1322.96 93.024H1324.43ZM1324.43 93.024L1360.49 165.52L1351.84 208.024L1312.28 128.352L1324.43 93.024ZM1386.62 96.704L1356.44 189.44C1356.44 189.44 1356.14 190.421 1355.52 192.384C1355.03 194.347 1354.54 196.8 1354.05 199.744C1353.56 202.565 1353.38 205.325 1353.5 208.024H1351.84L1346.88 191.464L1374.84 96.704H1386.62ZM1371.53 107.56C1372.51 104.003 1372.27 101.427 1370.8 99.832C1369.45 98.2373 1367.73 97.44 1365.64 97.44H1364.17V95.6H1398.76V97.44C1398.76 97.44 1398.52 97.44 1398.03 97.44C1397.66 97.44 1397.48 97.44 1397.48 97.44C1394.65 97.44 1391.83 98.2987 1389.01 100.016C1386.19 101.611 1384.23 104.125 1383.12 107.56H1371.53ZM1274.93 107.56H1246.41C1245.06 104.125 1243.1 101.611 1240.52 100.016C1237.95 98.2987 1235.13 97.44 1232.06 97.44C1232.06 97.44 1231.81 97.44 1231.32 97.44C1230.83 97.44 1230.59 97.44 1230.59 97.44V95.6H1282.29V97.44H1280.82C1278.86 97.44 1277.08 98.2373 1275.48 99.832C1273.89 101.427 1273.71 104.003 1274.93 107.56Z" fill="white"/>
</svg>
