<svg width="1125" height="136" viewBox="0 0 1125 136" fill="none" xmlns="http://www.w3.org/2000/svg">
<path d="M14.872 1.43999L132.264 113.312L134.472 135.576L17.08 23.888L14.872 1.43999ZM15.792 119.936V133H0.52V131.16C0.52 131.16 1.072 131.16 2.176 131.16C3.28 131.16 3.89333 131.16 4.016 131.16C7.08267 131.16 9.72 130.056 11.928 127.848C14.136 125.64 15.24 123.003 15.24 119.936H15.792ZM41.552 119.936C41.552 123.003 42.656 125.64 44.864 127.848C47.072 130.056 49.7093 131.16 52.776 131.16C52.8987 131.16 53.512 131.16 54.616 131.16C55.72 131.16 56.272 131.16 56.272 131.16V133H41V119.936H41.552ZM14.872 1.43999L41.368 29.592L41.552 133H15.24V24.44C15.24 17.5707 14.872 12.0507 14.136 7.88C13.4 3.58666 13.032 1.43999 13.032 1.43999H14.872ZM133.92 4.19999V112.024C133.92 116.563 134.104 120.672 134.472 124.352C134.84 127.909 135.208 130.669 135.576 132.632C135.944 134.595 136.128 135.576 136.128 135.576H134.472L107.792 105.768V4.19999H133.92ZM148.64 4.19999V6.03999C148.64 6.03999 148.088 6.03999 146.984 6.03999C145.88 6.03999 145.328 6.03999 145.328 6.03999C142.261 6.03999 139.624 7.14399 137.416 9.35199C135.208 11.4373 134.043 14.0747 133.92 17.264H133.368V4.19999H148.64ZM92.888 4.19999H108.16V17.264H107.792C107.669 14.0747 106.504 11.4373 104.296 9.35199C102.211 7.14399 99.5733 6.03999 96.384 6.03999C96.384 6.03999 95.832 6.03999 94.728 6.03999C93.624 6.03999 93.0107 6.03999 92.888 6.03999V4.19999ZM222.001 20.208C231.815 20.208 240.708 21.5573 248.681 24.256C256.655 26.832 263.524 30.6347 269.289 35.664C275.055 40.6933 279.471 46.7653 282.537 53.88C285.727 60.9947 287.321 69.0293 287.321 77.984C287.321 86.816 285.727 94.7893 282.537 101.904C279.471 108.896 275.055 114.907 269.289 119.936C263.524 124.965 256.655 128.829 248.681 131.528C240.708 134.104 231.815 135.392 222.001 135.392C212.311 135.392 203.479 134.104 195.505 131.528C187.532 128.829 180.663 124.965 174.897 119.936C169.132 114.907 164.716 108.896 161.649 101.904C158.583 94.7893 157.049 86.816 157.049 77.984C157.049 69.0293 158.583 60.9947 161.649 53.88C164.716 46.7653 169.132 40.6933 174.897 35.664C180.663 30.6347 187.532 26.832 195.505 24.256C203.479 21.5573 212.311 20.208 222.001 20.208ZM222.001 128.216C229.484 128.216 235.985 126.192 241.505 122.144C247.148 117.973 251.441 112.147 254.385 104.664C257.452 97.1813 258.985 88.288 258.985 77.984C258.985 67.5573 257.452 58.6027 254.385 51.12C251.441 43.5147 247.148 37.688 241.505 33.64C235.985 29.4693 229.484 27.384 222.001 27.384C214.641 27.384 208.201 29.4693 202.681 33.64C197.161 37.688 192.868 43.5147 189.801 51.12C186.735 58.6027 185.201 67.5573 185.201 77.984C185.201 88.288 186.735 97.1813 189.801 104.664C192.868 112.147 197.161 117.973 202.681 122.144C208.201 126.192 214.641 128.216 222.001 128.216ZM348.756 135.392L294.66 23.52H325.94L359.428 101.536L348.756 135.392ZM348.756 135.392L348.02 113.864L387.948 23.152H401.38L358.876 112.944C358.63 113.557 358.078 114.845 357.22 116.808C356.361 118.648 355.441 120.795 354.46 123.248C353.478 125.579 352.558 127.848 351.7 130.056C350.964 132.264 350.534 134.043 350.412 135.392H348.756ZM382.796 34.744C384.145 31.432 383.961 28.856 382.244 27.016C380.649 25.176 378.748 24.256 376.54 24.256H375.252V22.6H411.868V24.44C411.868 24.44 411.622 24.44 411.132 24.44C410.641 24.44 410.396 24.44 410.396 24.44C407.942 24.44 405.366 25.2373 402.668 26.832C399.969 28.304 397.7 30.9413 395.86 34.744H382.796ZM330.724 34.744H300.18C298.34 30.9413 296.07 28.304 293.372 26.832C290.796 25.2373 288.281 24.44 285.828 24.44C285.828 24.44 285.644 24.44 285.276 24.44C284.785 24.44 284.54 24.44 284.54 24.44V22.6H338.452V24.256H336.98C335.017 24.256 333.177 25.176 331.46 27.016C329.742 28.856 329.497 31.432 330.724 34.744ZM452.822 22.6V133H426.326V22.6H452.822ZM495.878 125.64L500.11 133H452.454V125.64H495.878ZM489.622 74.672V82.032H452.454V74.672H489.622ZM497.902 22.6V29.96H452.454V22.6H497.902ZM507.654 99.144L500.662 133H468.83L474.534 125.64C479.809 125.64 484.47 124.597 488.518 122.512C492.689 120.304 496.246 117.237 499.19 113.312C502.134 109.264 504.404 104.541 505.998 99.144H507.654ZM489.622 81.664V97.856H487.782V96.384C487.782 92.336 486.494 88.9627 483.918 86.264C481.465 83.5653 478.092 82.1547 473.798 82.032V81.664H489.622ZM489.622 58.848V75.04H473.798V74.672C478.092 74.5493 481.465 73.1387 483.918 70.44C486.494 67.6187 487.782 64.184 487.782 60.136V58.848H489.622ZM497.902 29.592V49.096H496.062V47.44C496.062 42.0427 494.59 37.8107 491.646 34.744C488.825 31.6773 484.716 30.0827 479.318 29.96V29.592H497.902ZM497.902 19.84V24.256L478.582 22.6C482.14 22.6 485.881 22.2933 489.806 21.68C493.732 20.944 496.43 20.3307 497.902 19.84ZM426.694 121.408L427.614 133H413.998V131.16C413.998 131.16 414.366 131.16 415.102 131.16C415.838 131.16 416.268 131.16 416.39 131.16C419.089 131.16 421.358 130.24 423.198 128.4C425.161 126.437 426.204 124.107 426.326 121.408H426.694ZM426.694 34.192H426.326C426.204 31.3707 425.161 29.04 423.198 27.2C421.358 25.36 419.089 24.44 416.39 24.44C416.268 24.44 415.838 24.44 415.102 24.44C414.366 24.44 413.998 24.44 413.998 24.44V22.6H427.614L426.694 34.192ZM555.963 22.6V133H529.467V22.6H555.963ZM598.835 125.64L603.251 133H555.595V125.64H598.835ZM610.979 99.144L603.803 133H571.971L577.675 125.64C582.949 125.64 587.611 124.597 591.659 122.512C595.829 120.304 599.387 117.237 602.331 113.312C605.275 109.264 607.544 104.541 609.139 99.144H610.979ZM529.835 121.408L530.755 133H517.139V131.16C517.139 131.16 517.507 131.16 518.243 131.16C518.979 131.16 519.408 131.16 519.531 131.16C522.229 131.16 524.499 130.24 526.339 128.4C528.301 126.437 529.344 124.107 529.467 121.408H529.835ZM555.595 34.192V22.6H568.291V24.44C568.168 24.44 567.739 24.44 567.003 24.44C566.389 24.44 566.083 24.44 566.083 24.44C563.384 24.44 561.053 25.36 559.091 27.2C557.128 29.04 556.085 31.3707 555.963 34.192H555.595ZM529.835 34.192H529.467C529.344 31.3707 528.301 29.04 526.339 27.2C524.376 25.36 522.045 24.44 519.347 24.44C519.224 24.44 518.795 24.44 518.059 24.44C517.445 24.44 517.139 24.44 517.139 24.44V22.6H529.835V34.192ZM661.363 4.19999V133H633.763V4.19999H661.363ZM703.131 65.656V73.384H660.811V65.656H703.131ZM712.147 4.19999V12.112H660.811V4.19999H712.147ZM703.131 73.016V90.68H701.291V89.208C701.291 84.6693 699.819 80.928 696.875 77.984C693.931 75.04 690.19 73.5067 685.651 73.384V73.016H703.131ZM703.131 48.36V66.024H685.651V65.656C690.19 65.5333 693.931 64 696.875 61.056C699.819 57.9893 701.291 54.1867 701.291 49.648V48.36H703.131ZM712.147 11.56V31.984H710.307V30.144C710.307 24.624 708.651 20.2693 705.339 17.08C702.15 13.768 697.795 12.112 692.275 12.112V11.56H712.147ZM712.147 0.88799V6.224L689.699 4.19999C692.398 4.19999 695.219 4.01599 698.163 3.648C701.23 3.28 704.051 2.85066 706.627 2.35999C709.203 1.86933 711.043 1.37866 712.147 0.88799ZM634.315 119.568V133H619.595V131.16C619.595 131.16 619.963 131.16 620.699 131.16C621.558 131.16 621.987 131.16 621.987 131.16C625.177 131.16 627.875 130.056 630.083 127.848C632.414 125.517 633.641 122.757 633.763 119.568H634.315ZM634.315 17.632H633.763C633.641 14.4427 632.414 11.744 630.083 9.536C627.875 7.20533 625.177 6.03999 621.987 6.03999C621.987 6.03999 621.558 6.03999 620.699 6.03999C619.963 6.03999 619.595 6.03999 619.595 6.03999V4.19999H634.315V17.632ZM660.811 119.568H661.363C661.486 122.757 662.651 125.517 664.859 127.848C667.19 130.056 669.95 131.16 673.139 131.16C673.139 131.16 673.507 131.16 674.243 131.16C674.979 131.16 675.409 131.16 675.531 131.16V133H660.811V119.568ZM763.682 22.6V133H737.186V22.6H763.682ZM806.554 125.64L810.97 133H763.314V125.64H806.554ZM818.698 99.144L811.522 133H779.69L785.394 125.64C790.668 125.64 795.33 124.597 799.378 122.512C803.548 120.304 807.106 117.237 810.05 113.312C812.994 109.264 815.263 104.541 816.858 99.144H818.698ZM737.554 121.408L738.474 133H724.858V131.16C724.858 131.16 725.226 131.16 725.962 131.16C726.698 131.16 727.127 131.16 727.25 131.16C729.948 131.16 732.218 130.24 734.058 128.4C736.02 126.437 737.063 124.107 737.186 121.408H737.554ZM763.314 34.192V22.6H776.01V24.44C775.887 24.44 775.458 24.44 774.722 24.44C774.108 24.44 773.802 24.44 773.802 24.44C771.103 24.44 768.772 25.36 766.81 27.2C764.847 29.04 763.804 31.3707 763.682 34.192H763.314ZM737.554 34.192H737.186C737.063 31.3707 736.02 29.04 734.058 27.2C732.095 25.36 729.764 24.44 727.066 24.44C726.943 24.44 726.514 24.44 725.778 24.44C725.164 24.44 724.858 24.44 724.858 24.44V22.6H737.554V34.192ZM892.955 20.208C902.768 20.208 911.661 21.5573 919.635 24.256C927.608 26.832 934.477 30.6347 940.243 35.664C946.008 40.6933 950.424 46.7653 953.491 53.88C956.68 60.9947 958.275 69.0293 958.275 77.984C958.275 86.816 956.68 94.7893 953.491 101.904C950.424 108.896 946.008 114.907 940.243 119.936C934.477 124.965 927.608 128.829 919.635 131.528C911.661 134.104 902.768 135.392 892.955 135.392C883.264 135.392 874.432 134.104 866.459 131.528C858.485 128.829 851.616 124.965 845.85 119.936C840.085 114.907 835.669 108.896 832.603 101.904C829.536 94.7893 828.003 86.816 828.003 77.984C828.003 69.0293 829.536 60.9947 832.603 53.88C835.669 46.7653 840.085 40.6933 845.85 35.664C851.616 30.6347 858.485 26.832 866.459 24.256C874.432 21.5573 883.264 20.208 892.955 20.208ZM892.955 128.216C900.437 128.216 906.939 126.192 912.459 122.144C918.101 117.973 922.395 112.147 925.339 104.664C928.405 97.1813 929.939 88.288 929.939 77.984C929.939 67.5573 928.405 58.6027 925.339 51.12C922.395 43.5147 918.101 37.688 912.459 33.64C906.939 29.4693 900.437 27.384 892.955 27.384C885.595 27.384 879.155 29.4693 873.635 33.64C868.115 37.688 863.821 43.5147 860.755 51.12C857.688 58.6027 856.155 67.5573 856.155 77.984C856.155 88.288 857.688 97.1813 860.755 104.664C863.821 112.147 868.115 117.973 873.635 122.144C879.155 126.192 885.595 128.216 892.955 128.216ZM968.18 23.704H996.7L1021.54 89.208L1011.24 135.024L968.18 23.704ZM1050.43 20.024L1053.74 36.952L1017.12 116.44C1017.12 116.44 1016.76 117.36 1016.02 119.2C1015.41 121.04 1014.73 123.371 1014 126.192C1013.26 129.013 1012.89 131.957 1012.89 135.024H1011.24L1006.27 114.6L1048.96 20.024H1050.43ZM1050.43 20.024L1086.49 92.52L1077.84 135.024L1038.28 55.352L1050.43 20.024ZM1112.62 23.704L1082.44 116.44C1082.44 116.44 1082.14 117.421 1081.52 119.384C1081.03 121.347 1080.54 123.8 1080.05 126.744C1079.56 129.565 1079.38 132.325 1079.5 135.024H1077.84L1072.88 118.464L1100.84 23.704H1112.62ZM1097.53 34.56C1098.51 31.0027 1098.27 28.4267 1096.8 26.832C1095.45 25.2373 1093.73 24.44 1091.64 24.44H1090.17V22.6H1124.76V24.44C1124.76 24.44 1124.52 24.44 1124.03 24.44C1123.66 24.44 1123.48 24.44 1123.48 24.44C1120.65 24.44 1117.83 25.2987 1115.01 27.016C1112.19 28.6107 1110.23 31.1253 1109.12 34.56H1097.53ZM1000.93 34.56H972.412C971.063 31.1253 969.1 28.6107 966.524 27.016C963.948 25.2987 961.127 24.44 958.06 24.44C958.06 24.44 957.815 24.44 957.324 24.44C956.834 24.44 956.588 24.44 956.588 24.44V22.6H1008.29V24.44H1006.82C1004.86 24.44 1003.08 25.2373 1001.48 26.832C999.89 28.4267 999.706 31.0027 1000.93 34.56Z" fill="#554333"/>
</svg>
